<?xml version="1.0" standalone="no"?>
<!DOCTYPE svg PUBLIC "-//W3C//DTD SVG 20010904//EN"
 "http://www.w3.org/TR/2001/REC-SVG-20010904/DTD/svg10.dtd">
<svg version="1.0" xmlns="http://www.w3.org/2000/svg"
 width="538.000000pt" height="380.000000pt" viewBox="0 0 538.000000 380.000000"
 preserveAspectRatio="xMidYMid meet">

<g transform="translate(0.000000,380.000000) scale(0.100000,-0.100000)"
fill="#000000" stroke="none">
<path d="M0 1900 l0 -1900 2690 0 2690 0 0 1900 0 1900 -2690 0 -2690 0 0
-1900z m768 1783 c-10 -2 -28 -2 -40 0 -13 2 -5 4 17 4 22 1 32 -1 23 -4z
m4486 -26 c17 -48 -4 -65 -74 -58 -13 1 -13 47 1 72 16 30 61 22 73 -14z
m-4496 -14 c-10 -2 -26 -2 -35 0 -10 3 -2 5 17 5 19 0 27 -2 18 -5z m10 -30
c-10 -2 -28 -2 -40 0 -13 2 -5 4 17 4 22 1 32 -1 23 -4z m-580 -307 c21 -42 8
-63 -36 -62 -34 2 -37 4 -40 35 -2 18 2 39 8 46 18 22 53 12 68 -19z m787 -38
l8 23 14 -28 c7 -14 12 -34 9 -42 -3 -12 -6 -9 -12 8 l-7 25 -10 -25 -10 -24
-7 25 c-5 14 -8 34 -8 45 0 16 2 15 8 -5 l8 -25 7 23z m69 -18 c8 0 17 10 19
23 2 12 4 2 4 -23 1 -25 -1 -37 -4 -27 -2 9 -11 17 -19 17 -17 0 -19 -16 -1
-23 9 -4 9 -6 -1 -6 -13 -1 -32 39 -31 67 0 12 3 11 9 -5 5 -13 16 -23 24 -23z
m370 -32 c6 -4 1 -6 -12 -5 -19 1 -22 7 -21 42 l1 40 11 -35 c6 -19 15 -38 21
-42z m-114 30 c0 -19 1 -19 31 2 16 12 33 19 36 16 4 -3 1 -6 -5 -6 -16 0 -15
-37 1 -43 6 -2 -12 -4 -40 -4 l-53 -1 0 34 c0 26 3 32 15 28 8 -4 15 -15 15
-26z m170 -28 c5 0 11 12 13 28 4 25 4 25 3 -3 -1 -43 -30 -41 -33 3 -3 32 -3
32 3 2 3 -16 9 -30 14 -30z m137 28 c-3 -7 -5 -2 -5 12 0 14 2 19 5 13 2 -7 2
-19 0 -25z m-504 15 c-15 -5 -18 -43 -4 -43 5 0 11 10 15 23 5 21 11 23 65 23
33 0 58 -3 55 -7 -2 -4 2 -10 8 -12 8 -3 6 -6 -4 -6 -21 -1 -24 -17 -5 -24 6
-3 2 -4 -10 -4 -17 1 -23 7 -23 23 0 17 -4 21 -20 17 -11 -3 -20 -13 -20 -22
0 -22 -69 -26 -77 -5 -7 19 4 44 19 43 10 0 10 -2 1 -6z m411 -8 c-8 -20 6
-19 22 3 12 15 15 15 24 2 6 -10 10 -11 10 -2 0 6 4 12 9 12 4 0 6 -12 3 -27
-3 -16 -7 -22 -9 -15 -5 14 -33 16 -33 2 0 -5 5 -10 12 -10 6 0 8 -3 5 -6 -4
-4 -13 -1 -22 6 -10 8 -15 9 -15 1 0 -25 -15 -9 -17 19 -1 17 2 30 7 30 5 0 7
-7 4 -15z m1544 -515 c1 -146 0 -275 -3 -288 l-5 -22 -493 2 -492 3 -3 288 -2
287 497 -2 498 -3 3 -265z m1110 49 c2 -174 0 -218 -11 -228 -11 -8 -145 -10
-498 -9 l-484 3 -3 228 -2 227 497 -2 498 -3 3 -216z m-3380 99 l-3 -113 -365
0 -365 0 -3 113 -3 112 371 0 371 0 -3 -112z m701 20 c40 -1 49 -10 33 -36 -9
-14 -66 -24 -88 -15 -8 3 -14 15 -14 27 0 25 9 38 20 31 5 -3 27 -6 49 -7z
m3335 -10 c51 2 65 -1 70 -14 3 -9 4 -19 1 -24 -8 -13 -75 -6 -85 10 -8 13
-10 13 -10 -2 0 -12 -8 -16 -29 -16 -24 1 -29 5 -29 27 0 31 11 53 16 31 2
-12 16 -14 66 -12z m-292 -110 c3 -7 4 -40 4 -73 l-1 -60 -55 0 -55 0 -2 60
c-3 83 -1 85 56 85 30 0 50 -5 53 -12z m-3307 -63 l0 -60 -67 -3 -68 -3 0 59
c0 32 3 62 7 66 4 4 34 6 68 4 l60 -3 0 -60z m222 41 c-3 -7 -1 -18 5 -24 6
-6 8 -18 5 -26 -7 -17 -37 -22 -37 -6 0 6 5 10 11 10 8 0 8 5 -1 15 -14 16 -7
45 11 45 6 0 9 -6 6 -14z m43 -23 c0 -22 2 -24 15 -13 12 10 13 15 4 20 -17
11 -1 30 22 27 12 -2 25 -10 29 -17 8 -12 10 -12 15 1 4 10 17 16 33 15 23 -1
27 -6 30 -36 l3 -36 -88 -1 -88 -2 1 32 c2 46 3 49 14 42 6 -3 10 -18 10 -32z
m3282 -3 c2 -26 -1 -40 -8 -40 -15 0 -23 57 -10 70 14 14 13 15 18 -30z m237
-11 c-6 -24 -14 -38 -16 -32 -5 15 17 87 24 80 2 -3 -1 -25 -8 -48z m53 11 c2
-29 0 -40 -10 -40 -9 0 -11 7 -7 19 3 11 1 22 -5 26 -8 5 -8 11 1 21 16 19 16
19 21 -26z m-3387 -9 c-4 -17 -11 -31 -16 -31 -12 0 -11 12 1 46 14 35 24 24
15 -15z m3301 13 c-3 -9 -6 -22 -6 -30 0 -18 -50 -19 -51 -1 0 10 -2 10 -6 0
-7 -20 -20 -15 -28 10 l-8 22 -4 -22 c-4 -19 -11 -23 -44 -23 -34 0 -39 3 -39
23 0 13 2 26 5 28 2 3 45 5 95 6 79 2 91 0 86 -13z m-4860 -99 c0 -19 -4 -35
-8 -35 -4 0 -8 16 -8 35 0 19 4 35 8 35 4 0 8 -16 8 -35z m34 19 c0 -8 -4 -12
-10 -9 -5 3 -10 10 -10 16 0 5 5 9 10 9 6 0 10 -7 10 -16z m-4 -51 c-10 -10
-19 5 -10 18 6 11 8 11 12 0 2 -7 1 -15 -2 -18z m1312 -25 l11 -33 -2 29 c-1
16 4 31 11 33 8 3 12 -6 12 -27 0 -28 2 -31 15 -20 17 14 21 35 5 25 -5 -3
-10 1 -10 10 0 20 47 16 60 -5 8 -12 10 -12 15 1 4 10 17 16 33 15 24 -1 27
-5 30 -39 3 -36 2 -37 -27 -35 -17 1 -31 6 -31 10 0 5 -8 5 -17 0 -22 -11
-143 -13 -143 -2 0 5 6 11 13 14 10 5 10 7 0 12 -17 8 -16 44 1 44 7 0 18 -15
24 -32z m3472 7 c0 -2 -4 -15 -10 -29 -8 -21 -15 -25 -44 -24 -24 1 -37 7 -45
22 -10 21 -10 21 -10 0 -1 -16 -8 -21 -41 -22 -38 -3 -40 -1 -40 26 l0 30 95
0 c52 0 95 -1 95 -3z m-4803 -171 c-3 -3 -12 -4 -19 -1 -8 3 -5 6 6 6 11 1 17
-2 13 -5z m3 -24 c0 -5 -7 -10 -15 -10 -8 0 -15 5 -15 10 0 6 7 10 15 10 8 0
15 -4 15 -10z m-3 -26 c-3 -3 -12 -4 -19 -1 -8 3 -5 6 6 6 11 1 17 -2 13 -5z
m21 -233 c-2 -18 -9 -26 -23 -26 -22 0 -34 33 -16 45 25 15 42 7 39 -19z m890
-3 c-2 -8 6 -12 20 -11 24 3 25 2 16 -21 -8 -21 -24 -20 -40 2 -16 20 -18 42
-4 42 6 0 9 -6 8 -12z m3119 -35 c-3 -10 -5 -2 -5 17 0 19 2 27 5 18 2 -10 2
-26 0 -35z m83 22 c8 0 15 -8 16 -18 1 -12 1 -13 -3 -2 -7 24 -25 17 -18 -7 6
-22 5 -22 -8 1 -14 23 -15 23 -25 5 -11 -18 -11 -18 -12 1 l-1 20 -9 -20 c-9
-20 -9 -20 -9 0 -1 22 40 48 49 30 3 -5 12 -10 20 -10z m-3126 -3 c-6 -4 -14
-14 -17 -22 -4 -10 -6 -8 -6 8 -1 15 5 22 17 22 10 0 13 -3 6 -8z m79 -13 c-4
-16 -8 -18 -14 -7 -7 11 -11 10 -19 -2 -8 -12 -10 -11 -10 8 0 17 6 22 24 22
20 0 23 -4 19 -21z m36 -6 c0 -25 -1 -26 -9 -8 -12 27 -12 35 0 35 6 0 10 -12
9 -27z m2839 -4 c1 -35 -23 -39 -34 -6 -4 12 -12 25 -17 29 -6 4 3 6 19 6 27
-1 31 -5 32 -29z m19 -1 c-3 -7 -5 -2 -5 12 0 14 2 19 5 13 2 -7 2 -19 0 -25z
m40 6 c2 -13 1 -15 -4 -4 -3 8 -11 19 -17 23 -7 6 -6 7 4 4 8 -2 16 -12 17
-23z m-2991 -11 c-10 -10 -19 5 -10 18 6 11 8 11 12 0 2 -7 1 -15 -2 -18z
m2854 -3 c0 -5 -2 -10 -4 -10 -3 0 -8 5 -11 10 -3 6 -1 10 4 10 6 0 11 -4 11
-10z m-3843 -146 c-3 -3 -12 -4 -19 -1 -8 3 -5 6 6 6 11 1 17 -2 13 -5z m-14
-31 c-7 -2 -19 -2 -25 0 -7 3 -2 5 12 5 14 0 19 -2 13 -5z m2775 -505 l-3
-103 -112 -3 -113 -3 0 106 0 105 115 0 116 0 -3 -102z m592 -3 l0 -105 -115
0 -115 0 0 105 0 105 115 0 115 0 0 -105z m-445 25 c5 -8 11 -8 20 0 9 8 15 8
20 0 3 -6 11 -8 16 -5 19 13 49 -6 49 -31 0 -23 -2 -24 -75 -24 l-75 0 0 28
c0 16 3 32 7 35 10 10 31 8 38 -3z m-2936 -242 c-17 -34 -19 -34 -19 -5 0 18
5 27 15 27 13 0 14 -4 4 -22z m31 -28 c0 -11 -7 -20 -15 -20 -18 0 -19 12 -3
28 16 16 18 15 18 -8z m-30 -1019 c0 -4 -6 -16 -14 -26 -13 -18 -14 -18 -25 4
-16 29 3 58 25 40 8 -6 14 -15 14 -18z"/>
<path d="M1282 3240 c0 -14 2 -19 5 -12 2 6 2 18 0 25 -3 6 -5 1 -5 -13z"/>
<path d="M1125 3247 c-4 -10 -5 -21 -1 -24 10 -10 18 4 13 24 -4 17 -4 17 -12
0z"/>
<path d="M119 2921 c-1 -3 -1 -9 0 -13 0 -5 -3 -8 -7 -8 -11 0 -12 -39 -1 -45
5 -4 9 2 9 11 0 16 1 16 15 -2 13 -18 14 -16 15 22 0 30 -4 41 -15 41 -8 0
-16 -3 -16 -6z"/>
</g>
</svg>
